<svg width="200" height="200" viewBox="0 0 200 200" fill="none" xmlns="http://www.w3.org/2000/svg">
<path d="M38 65.655C38 62.8388 38.8468 60.0876 40.4304 57.7588L41.3661 56.3827C45.0535 50.9601 52.3476 49.3857 57.9434 52.8045L109.479 89.955C113.088 92.5567 115.227 96.7346 115.227 101.184C115.227 105.721 113.003 109.97 109.275 112.557L91.8748 124.628C88.0891 127.254 82.8942 126.339 80.234 122.577C77.5188 118.737 78.4866 113.416 82.3802 110.779L93.8111 103.035C94.9895 102.236 95.0054 100.506 93.8418 99.6863L58.0919 74.4988C56.7436 73.5489 54.8847 74.5132 54.8847 76.1624V135.588C54.8847 138.323 53.5599 140.889 51.3298 142.472L43.2699 148.194C41.0599 149.764 38 148.183 38 145.473V65.655Z" fill="#222452"/>
<path d="M96.0761 66.3266C92.3137 63.6168 91.4388 58.3808 94.1158 54.595C96.8235 50.7657 102.132 49.8753 105.941 52.6116L156.434 88.8845C160.263 91.6351 162.533 96.0611 162.533 100.776C162.533 105.331 160.412 109.628 156.796 112.398L113.94 145.23C110.174 148.114 104.773 147.338 101.972 143.51C99.2646 139.81 99.9987 134.627 103.627 131.824L141.703 102.41C142.78 101.578 142.753 99.9441 141.648 99.1487L96.0761 66.3266Z" fill="#222452"/>
</svg>
